# xmcd
#
# Track frame offsets:
#	150
#	13970
#	39200
#	59455
#	78000
#	99375
#	123900
#	139500
#	155887
#	172800
#	206645
#	228630
#	243687
#	269775
#	287625
#	307962
#	326407
#
# Disc length: 4720 seconds
#
# Revision: 1
# Processed by: cddbd v1.5PL3 Copyright (c) Steve Scherf et al.
# Submitted via: CDex 1.50Beta5
#
DISCID=eb126e11
DTITLE=Various Artist - Disco Fever Afro Boogie
DYEAR=2002
DGENRE=Pop
TTITLE0=Kool and The Gang/Jungle Boogie
TTITLE1=The Brothers Jonson/Ain't We Funkin' Now
TTITLE2=Rufus and Chaka Khan/Do You Love What You Feel
TTITLE3=Zoom/Saturday, Saturday Night
TTITLE4=Dazz Band/Let It Whip
TTITLE5=One Way/Cutie Pie
TTITLE6=Commondores/Brick House
TTITLE7=Con Funk Shun/Got To Be Enough
TTITLE8=Bar-Kays/Move Your Boogie Body
TTITLE9=Teena Marie/I Need Your Lovin'
TTITLE10=Atlantic Starr/Circles
TTITLE11=James Brown/Soul Power (Pt.1)
TTITLE12=Parliament/Flash Light
TTITLE13=Vernon Burch/Steppin' Out
TTITLE14=Klique/Love's Dance
TTITLE15=Rick James/Give It To Me Baby
TTITLE16=L.T.D./Kickin' Back
EXTD=
EXTT0=
EXTT1=
EXTT2=
EXTT3=
EXTT4=
EXTT5=
EXTT6=
EXTT7=
EXTT8=
EXTT9=
EXTT10=
EXTT11=
EXTT12=
EXTT13=
EXTT14=
EXTT15=
EXTT16=
PLAYORDER=
